<svg width="512" height="512" xmlns="http://www.w3.org/2000/svg">
  <!-- SkyMirror Icon: Stylized satellite over Earth -->
  <defs>
    <linearGradient id="skyGradient" x1="0%" y1="0%" x2="0%" y2="100%">
      <stop offset="0%" style="stop-color:#7CC4FF;stop-opacity:1" />
      <stop offset="100%" style="stop-color:#CDECEB;stop-opacity:1" />
    </linearGradient>
    <linearGradient id="earthGradient" x1="0%" y1="0%" x2="0%" y2="100%">
      <stop offset="0%" style="stop-color:#4A90E2;stop-opacity:1" />
      <stop offset="100%" style="stop-color:#357ABD;stop-opacity:1" />
    </linearGradient>
  </defs>
  
  <!-- Background -->
  <rect width="512" height="512" rx="100" fill="url(#skyGradient)"/>
  
  <!-- Earth -->
  <circle cx="256" cy="320" r="140" fill="url(#earthGradient)" opacity="0.9"/>
  
  <!-- Clouds on Earth -->
  <circle cx="200" cy="300" r="30" fill="white" opacity="0.3"/>
  <circle cx="280" cy="340" r="25" fill="white" opacity="0.4"/>
  <circle cx="240" cy="350" r="20" fill="white" opacity="0.35"/>
  
  <!-- Satellite -->
  <g transform="translate(256, 160)">
    <!-- Satellite body -->
    <rect x="-25" y="-15" width="50" height="30" rx="4" fill="#F0F0F0"/>
    <rect x="-20" y="-10" width="40" height="20" fill="#E0E0E0"/>
    
    <!-- Solar panels -->
    <rect x="-60" y="-20" width="30" height="40" rx="2" fill="#4A90E2" opacity="0.8"/>
    <rect x="30" y="-20" width="30" height="40" rx="2" fill="#4A90E2" opacity="0.8"/>
    
    <!-- Panel lines -->
    <line x1="-60" y1="-10" x2="-30" y2="-10" stroke="white" stroke-width="1" opacity="0.5"/>
    <line x1="-60" y1="0" x2="-30" y2="0" stroke="white" stroke-width="1" opacity="0.5"/>
    <line x1="-60" y1="10" x2="-30" y2="10" stroke="white" stroke-width="1" opacity="0.5"/>
    <line x1="30" y1="-10" x2="60" y2="-10" stroke="white" stroke-width="1" opacity="0.5"/>
    <line x1="30" y1="0" x2="60" y2="0" stroke="white" stroke-width="1" opacity="0.5"/>
    <line x1="30" y1="10" x2="60" y2="10" stroke="white" stroke-width="1" opacity="0.5"/>
    
    <!-- Antenna -->
    <line x1="0" y1="-15" x2="0" y2="-35" stroke="#A0A0A0" stroke-width="2"/>
    <circle cx="0" cy="-35" r="4" fill="#D0D0D0"/>
  </g>
  
  <!-- Signal waves -->
  <path d="M 256 190 Q 230 230 220 270" stroke="white" stroke-width="3" fill="none" opacity="0.4" stroke-dasharray="5,5"/>
  <path d="M 256 190 Q 270 230 275 270" stroke="white" stroke-width="3" fill="none" opacity="0.4" stroke-dasharray="5,5"/>
</svg>

